# xmcd
#
# Track frame offsets:
#	150
#	14430
#	28352
#	41197
#	55005
#	68895
#	82467
#	95490
#	109827
#	123295
#	138500
#	151627
#	166345
#	179887
#	192325
#	206702
#	221492
#	236157
#	249920
#	264822
#	279425
#	292880
#	306960
#	321130
#
# Disc length: 4472 seconds
#
# Revision: 0
# Processed by: cddbd v1.5.1PL2 Copyright (c) Steve Scherf et al.
# Submitted via: dBpowerAMP V4.0
#
DISCID=67117618
DTITLE=Big Bill Broonzy - Complete Recorded Works, Vol 5 (1936-1937)
DYEAR=1900
DGENRE=blues
TTITLE0=Big Bill's Milk Cow No. 2
TTITLE1=W.P.A. Blues
TTITLE2=I'm A Southern Man
TTITLE3=Nancy Jane
TTITLE4=Lowland Blues
TTITLE5=Seven-eleven
TTITLE6=You Know I Got A Reason
TTITLE7=Oh, Babe
TTITLE8=Detroit Special
TTITLE9=Falling Rain
TTITLE10=Black Widow Spider
TTITLE11=Cherry Hill
TTITLE12=Out With The Wrong Woman
TTITLE13=Don't Tear My Clothes no. 2
TTITLE14=You Drink Too Much
TTITLE15=Southern Flood Blues
TTITLE16=My Big Money
TTITLE17=My Woman Mistreats Me
TTITLE18=Let's Reel And Rock
TTITLE19=Come Up To My House
TTITLE20=Get Away
TTITLE21=Terrible Flood Blues
TTITLE22=Little Bug
TTITLE23=Home Frog (take 1)
EXTD=Document DOCD-5127
EXTT0=
EXTT1=
EXTT2=
EXTT3=
EXTT4=
EXTT5=
EXTT6=
EXTT7=
EXTT8=
EXTT9=
EXTT10=
EXTT11=
EXTT12=
EXTT13=
EXTT14=
EXTT15=
EXTT16=
EXTT17=
EXTT18=
EXTT19=
EXTT20=
EXTT21=
EXTT22=
EXTT23=
PLAYORDER=
